<?xml version="1.0" standalone="no"?>
<!DOCTYPE svg PUBLIC "-//W3C//DTD SVG 20010904//EN"
 "http://www.w3.org/TR/2001/REC-SVG-20010904/DTD/svg10.dtd">
<svg version="1.0" xmlns="http://www.w3.org/2000/svg"
 width="500.000000pt" height="500.000000pt" viewBox="0 0 500.000000 500.000000"
 preserveAspectRatio="xMidYMid meet">
<metadata>
Created by potrace 1.14, written by Peter Selinger 2001-2017
</metadata>
<g transform="translate(0.000000,500.000000) scale(0.100000,-0.100000)"
fill="#000000" stroke="none">
<path d="M0 2500 l0 -2500 2500 0 2500 0 0 2500 0 2500 -2500 0 -2500 0 0
-2500z m2848 1975 c647 -126 1172 -697 1327 -1442 38 -180 48 -324 42 -558 -7
-266 -31 -417 -103 -670 -43 -149 -152 -417 -180 -442 -32 -29 -76 -29 -109 0
-38 33 -35 73 18 198 203 480 259 985 161 1450 -61 292 -192 571 -372 792 -80
99 -223 230 -326 299 -235 157 -449 222 -726 222 -176 0 -258 -13 -422 -70
-461 -159 -842 -609 -982 -1159 -60 -238 -61 -250 -61 -880 0 -621 -3 -659
-56 -855 -27 -98 -94 -234 -131 -265 -38 -32 -81 -32 -113 0 -34 33 -32 77 5
134 39 61 74 157 94 256 32 161 37 298 31 760 -8 484 -4 562 41 782 158 791
751 1391 1449 1467 80 8 332 -3 413 -19z m4 -299 c201 -51 388 -155 548 -303
156 -145 191 -211 138 -260 -55 -50 -94 -37 -181 61 -142 161 -362 292 -572
342 -86 20 -295 23 -380 5 -495 -104 -869 -540 -981 -1146 -17 -91 -19 -148
-16 -655 4 -559 -1 -676 -34 -835 -38 -186 -153 -448 -207 -473 -55 -26 -117
14 -117 75 0 18 15 60 34 95 49 90 90 199 114 303 40 173 44 270 37 800 -6
438 -5 516 10 630 43 331 156 615 345 867 214 285 505 466 835 518 104 16 317
4 427 -24z m-57 -286 c165 -42 302 -125 440 -264 189 -190 316 -437 375 -731
27 -131 37 -393 21 -544 -24 -233 -65 -381 -183 -671 -154 -378 -190 -500
-206 -693 -8 -92 -12 -111 -32 -132 -30 -32 -77 -33 -115 -3 l-28 22 6 120
c10 197 54 357 187 677 170 406 219 633 207 949 -13 341 -115 619 -311 842
-110 127 -264 226 -407 263 -90 24 -225 24 -336 1 -103 -22 -131 -16 -152 31
-35 78 19 123 187 153 75 14 258 4 347 -20z m-690 -205 c17 -16 25 -35 25 -59
0 -30 -11 -46 -79 -115 -173 -174 -281 -392 -338 -676 -16 -82 -18 -142 -15
-645 4 -578 0 -672 -39 -865 -27 -135 -69 -257 -135 -395 -65 -136 -94 -170
-141 -170 -44 0 -83 38 -83 79 0 16 18 62 39 103 93 173 151 362 177 583 14
110 15 208 9 635 -8 606 0 696 80 937 55 163 119 283 231 428 133 172 211 219
269 160z m655 -91 c80 -27 184 -90 258 -157 126 -116 282 -399 282 -514 0 -44
-37 -83 -79 -83 -44 0 -75 35 -105 120 -114 317 -347 519 -571 496 -179 -19
-373 -195 -472 -428 -72 -172 -96 -329 -91 -596 l3 -174 -28 -24 c-36 -31 -78
-31 -114 0 l-28 24 0 244 c0 196 4 260 18 328 69 324 227 575 445 706 156 95
313 113 482 58z m957 -159 c39 -27 114 -218 159 -400 55 -225 69 -503 38 -765
-25 -218 -78 -403 -209 -729 -127 -317 -160 -428 -174 -575 -8 -90 -11 -102
-35 -123 -36 -30 -80 -30 -111 2 -22 21 -25 33 -25 93 0 163 37 295 185 662
157 390 202 575 212 885 10 303 -35 549 -146 803 -34 78 -34 100 2 140 24 26
72 29 104 7z m-1008 -132 c80 -38 170 -132 214 -223 130 -265 121 -699 -24
-1192 -16 -55 -25 -71 -49 -83 -37 -19 -60 -19 -88 1 -44 31 -45 55 -8 197
129 489 122 864 -19 1055 -80 110 -155 132 -240 71 -54 -39 -133 -152 -165
-236 -51 -135 -53 -161 -55 -743 -1 -541 -7 -653 -41 -870 -16 -101 -34 -134
-79 -143 -33 -6 -80 19 -94 49 -8 19 -7 47 4 117 34 216 39 335 40 872 1 477
3 549 19 619 43 196 134 360 254 459 108 90 217 106 331 50z m-81 -369 c40
-27 45 -58 23 -138 -11 -39 -25 -107 -32 -151 -15 -104 -15 -413 1 -692 22
-382 7 -648 -46 -806 -28 -84 -108 -101 -158 -34 -19 25 -19 31 -7 75 50 179
61 368 40 744 -18 341 -16 635 5 761 23 139 55 229 86 244 34 17 61 16 88 -3z
m677 -220 c47 -19 59 -166 30 -387 -26 -202 -52 -282 -213 -682 -116 -285
-159 -446 -169 -625 -6 -124 -17 -159 -55 -174 -38 -17 -71 -10 -99 20 -20 21
-22 33 -20 111 5 232 56 424 223 832 139 338 178 507 178 761 0 94 2 103 25
125 24 25 65 32 100 19z m-1362 -885 c45 -21 51 -46 44 -206 -13 -315 -84
-588 -226 -870 -50 -100 -87 -143 -122 -143 -47 0 -89 41 -89 89 0 9 31 79 69
153 77 153 130 307 160 460 23 122 41 283 41 378 0 84 11 114 47 134 34 18 45
19 76 5z m1977 -1019 c0 -5 -7 -10 -15 -10 -11 0 -15 -12 -15 -45 0 -33 -4
-45 -15 -45 -11 0 -15 12 -15 45 0 25 -4 45 -10 45 -5 0 -10 5 -10 10 0 6 18
10 40 10 22 0 40 -4 40 -10z m61 -27 l12 -38 12 35 c20 60 51 36 54 -42 1 -38
-17 -35 -27 5 l-9 32 -7 -32 c-9 -39 -33 -43 -42 -8 -7 28 -24 24 -24 -6 0
-11 -7 -19 -16 -19 -10 0 -14 6 -11 18 3 9 8 34 12 55 3 22 12 37 20 37 7 0
19 -17 26 -37z"/>
</g>
</svg>
